<svg width="375" height="301" viewBox="0 0 375 301" fill="none" xmlns="http://www.w3.org/2000/svg">
<rect x="277" y="127" width="97.9748" height="58.3361" rx="29.1681" fill="url(#paint0_linear_115_2892)"/>
<rect x="263.025" y="206.933" width="87.9748" height="34.874" rx="17.437" fill="#17BFE0" stroke="url(#paint1_linear_115_2892)" stroke-width="10"/>
<path d="M0 135C0 60.4416 60.4416 0 135 0H188.084C264.299 0 326.084 61.7847 326.084 138V165.655C326.084 240.214 265.642 300.655 191.084 300.655H135C60.4416 300.655 0 240.214 0 165.655V135Z" fill="#C6F6FF"/>
<path d="M0 135C0 60.4416 60.4416 0 135 0H165.286V300.655H135C60.4416 300.655 0 240.214 0 165.655V135Z" fill="white"/>
<rect x="10" y="10" width="306.084" height="280.655" rx="99" stroke="url(#paint2_linear_115_2892)" stroke-width="20"/>
<path d="M60.5801 91.9916C64.1949 85.2605 76.1364 71.7983 94.9834 71.7983" stroke="#414141" stroke-width="10" stroke-linecap="round"/>
<path d="M269.244 91.9916C265.629 85.2605 253.688 71.7983 234.841 71.7983" stroke="#414141" stroke-width="10" stroke-linecap="round"/>
<circle cx="87.3839" cy="147.962" r="39.2647" fill="url(#paint3_linear_115_2892)"/>
<circle cx="84.1397" cy="145.466" r="34.2647" fill="white" stroke="#414141" stroke-width="10"/>
<circle cx="78" cy="148" r="18" fill="#414141"/>
<circle cx="65.5" cy="142.5" r="7.5" fill="white"/>
<circle cx="245.939" cy="149.458" r="39.2647" fill="url(#paint4_linear_115_2892)"/>
<circle cx="242.694" cy="146.962" r="34.2647" fill="white" stroke="#414141" stroke-width="10"/>
<circle cx="240" cy="149" r="18" fill="#414141"/>
<circle cx="224.5" cy="143.5" r="7.5" fill="white"/>
<path d="M200.811 212.029C172.391 223.098 141.602 216.641 129.761 212.029C129.761 234.466 152.946 238.58 164.164 238.58C175.383 238.58 201.559 232.597 200.811 212.029Z" fill="#FFA700" stroke="#414141" stroke-width="10" stroke-linecap="round" stroke-linejoin="round"/>
<defs>
<linearGradient id="paint0_linear_115_2892" x1="286.072" y1="172.163" x2="364.554" y2="169.629" gradientUnits="userSpaceOnUse">
<stop stop-color="#0FD1EC"/>
<stop offset="1" stop-color="#AD49DC" stop-opacity="0.96"/>
</linearGradient>
<linearGradient id="paint1_linear_115_2892" x1="272.856" y1="207.57" x2="300.961" y2="263.424" gradientUnits="userSpaceOnUse">
<stop offset="0.142417" stop-color="#FE2B8E"/>
<stop offset="0.466093" stop-color="#FDE80A"/>
<stop offset="0.819261" stop-color="#03FBF9"/>
</linearGradient>
<linearGradient id="paint2_linear_115_2892" x1="49.3614" y1="37.7689" x2="283.828" y2="269.244" gradientUnits="userSpaceOnUse">
<stop offset="0.142417" stop-color="#FE2B8E"/>
<stop offset="0.466093" stop-color="#FDE80A"/>
<stop offset="0.819261" stop-color="#03FBF9"/>
</linearGradient>
<linearGradient id="paint3_linear_115_2892" x1="60.0066" y1="118.562" x2="120.983" y2="174.066" gradientUnits="userSpaceOnUse">
<stop offset="0.142417" stop-color="#FE2B8E"/>
<stop offset="0.466093" stop-color="#FDE80A"/>
<stop offset="0.819261" stop-color="#03FBF9"/>
</linearGradient>
<linearGradient id="paint4_linear_115_2892" x1="218.561" y1="120.058" x2="279.538" y2="175.562" gradientUnits="userSpaceOnUse">
<stop offset="0.142417" stop-color="#FE2B8E"/>
<stop offset="0.466093" stop-color="#FDE80A"/>
<stop offset="0.819261" stop-color="#03FBF9"/>
</linearGradient>
</defs>
</svg>
