<svg width="593" height="400" viewBox="0 0 593 400" fill="none" xmlns="http://www.w3.org/2000/svg">
<path fill-rule="evenodd" clip-rule="evenodd" d="M0 137.888C0 61.7349 61.7348 0 137.888 0H454.623C530.777 0 592.512 61.7349 592.512 137.888C592.512 214.042 530.777 275.778 454.623 275.778H191.76L178.408 302.483H207.088H207.155C209.087 302.51 210.968 303.11 212.559 304.208C214.149 305.306 215.378 306.852 216.088 308.648C216.799 310.446 216.96 312.414 216.55 314.303C216.14 316.191 215.178 317.916 213.787 319.256L213.757 319.284L129.991 398.662C128.395 400.174 125.986 400.433 124.107 399.293C122.228 398.153 121.344 395.896 121.948 393.783L139.675 331.738H118.933H118.908C117.311 331.73 115.74 331.33 114.334 330.572C112.928 329.816 111.729 328.724 110.843 327.396C109.957 326.066 109.411 324.54 109.253 322.951C109.095 321.362 109.33 319.758 109.936 318.28L109.957 318.231L128.092 275.434C56.5095 270.41 0 210.748 0 137.888ZM433.499 195.586C463.122 195.586 487.137 171.572 487.137 141.947C487.137 112.324 463.122 88.3088 433.499 88.3088C418.405 88.3088 404.767 94.5429 395.02 104.576C403.56 107.719 409.651 115.927 409.651 125.557C409.651 137.9 399.645 147.906 387.302 147.906C384.77 147.906 382.336 147.486 380.068 146.71C382.477 174.103 405.479 195.586 433.499 195.586ZM162.936 141.949C162.936 171.573 138.921 195.588 109.297 195.588C81.2779 195.588 58.2766 174.105 55.8667 146.711C58.1356 147.487 60.569 147.907 63.1009 147.907C75.4441 147.907 85.4504 137.901 85.4504 125.559C85.4504 115.928 79.3593 107.72 70.8194 104.578C80.5664 94.5439 94.2037 88.31 109.297 88.31C138.921 88.31 162.936 112.325 162.936 141.949ZM264.592 187.352C286.738 187.352 306.321 177.618 318.19 162.714C317.045 191.326 293.488 214.172 264.594 214.172C235.703 214.172 212.147 191.33 210.999 162.72C222.868 177.621 242.448 187.352 264.592 187.352Z" fill="white"/>
</svg>
