<svg width="390" height="400" viewBox="0 0 390 400" fill="none" xmlns="http://www.w3.org/2000/svg">
<path fill-rule="evenodd" clip-rule="evenodd" d="M348.164 65.6566H120.192C64.4112 65.6566 19.1919 110.876 19.1919 166.657V168.697C19.1919 222.382 61.077 266.284 113.951 269.507L100.556 301.118L100.541 301.155C100.092 302.248 99.9185 303.435 100.035 304.61C100.152 305.786 100.556 306.916 101.212 307.899C101.867 308.882 102.754 309.689 103.795 310.249C104.835 310.81 105.997 311.106 107.179 311.112L107.197 311.112H122.544L109.428 357.018C108.982 358.581 109.636 360.25 111.026 361.094C112.416 361.937 114.198 361.746 115.378 360.627L177.355 301.898L177.377 301.877C178.407 300.885 179.118 299.609 179.422 298.212C179.725 296.814 179.606 295.358 179.08 294.029C178.554 292.699 177.645 291.555 176.469 290.743C175.292 289.931 173.9 289.487 172.471 289.467L172.421 289.467H151.201L161.086 269.697H356.576C368.091 269.697 379.156 267.77 389.466 264.221C362.713 343.175 287.993 400 200 400C89.5431 400 0 310.457 0 200C0 89.5431 89.5431 0 200 0C258.744 0 311.573 25.3267 348.164 65.6566ZM139.737 170.682C139.737 192.6 121.969 210.368 100.051 210.368C79.32 210.368 62.3018 194.473 60.519 174.205C62.1992 174.78 64.0013 175.092 65.8763 175.092C75.0088 175.092 82.4122 167.689 82.4122 158.556C82.4122 151.43 77.9035 145.356 71.5829 143.032C78.7943 135.608 88.8839 130.996 100.051 130.996C121.969 130.996 139.737 148.764 139.737 170.682ZM214.961 204.281C231.346 204.281 245.833 197.08 254.614 186.055C253.766 207.223 236.337 224.125 214.961 224.125C193.583 224.125 176.154 207.223 175.307 186.053C184.088 197.08 198.576 204.281 214.961 204.281ZM339.931 210.368C361.849 210.368 379.617 192.6 379.617 170.682C379.617 148.764 361.849 130.996 339.931 130.996C328.764 130.996 318.674 135.608 311.463 143.032C317.783 145.356 322.292 151.43 322.292 158.556C322.292 167.689 314.889 175.092 305.756 175.092C303.881 175.092 302.079 174.78 300.399 174.205C302.182 194.473 319.2 210.368 339.931 210.368Z" fill="black"/>
</svg>
